# xmcd CD database file
#
# Track frame offsets:
#	165
#	13765
#	31407
#	46880
#	61987
#	77520
#	91762
#	109175
#	124955
#	144900
#	158740
#	176750
#	189030
#	207642
#	221907
#	236307
#	253545
#	267997
#	285470
#	302277
#
# Disc length: 4259 seconds
#
# Revision: 0
# Processed by: cddbd v1.5.2PL0 Copyright (c) Steve Scherf et al.
# Submitted via: CDex 1.51
#
DISCID=0c10a114
DTITLE=Fuzzy - Katalog
DYEAR=2002
DGENRE=Jazz
TTITLE0=Himmelkort
TTITLE1=Avaritia
TTITLE2=Variationer over et Bach-motiv
TTITLE3=Euklid
TTITLE4=Poma håndskriftet
TTITLE5=Vinter på Mors
TTITLE6=Dårskabens Pris
TTITLE7=Anders And og Mickey i Shanghai
TTITLE8=De re militaria
TTITLE9=Børnemusik
TTITLE10=Molon Toyin
TTITLE11=Fyrværkeri hos Frederik III
TTITLE12=Brønlunds sidste dagbogsnotat
TTITLE13=Hjertebogen
TTITLE14=Apokalypsen
TTITLE15=Allegorisk balletdivertissement
TTITLE16=Fransk kærlighedssang
TTITLE17=Den gådefulde by
TTITLE18=H.C. Andersens dagbog
TTITLE19=Havets velsignelser
EXTD=YEAR: 2002
EXTT0=
EXTT1=
EXTT2=
EXTT3=
EXTT4=
EXTT5=
EXTT6=
EXTT7=
EXTT8=
EXTT9=
EXTT10=
EXTT11=
EXTT12=
EXTT13=
EXTT14=
EXTT15=
EXTT16=
EXTT17=
EXTT18=
EXTT19=
PLAYORDER=
